<svg xmlns="http://www.w3.org/2000/svg" viewBox="0 0 32 32" fill="none">
  <rect width="32" height="32" rx="6" fill="#daf73a"/>
  <path d="M8 6.4h9.6c4.4 0 7.2 2.56 7.2 6.4 0 2.24-1.12 4-2.88 4.96C23.36 18.88 25.6 20.96 25.6 24c0 4.16-3.2 6.4-8 6.4H8V6.4z" fill="#2c4df2"/>
  <path d="M12.8 10.4h4.4c1.92 0 3.04 1.04 3.04 2.56s-1.12 2.56-3.04 2.56h-4.4V10.4zm0 7.52h4.8c2.08 0 3.36 1.12 3.36 2.88s-1.28 2.96-3.36 2.96h-4.8v-5.84z" fill="#daf73a"/>
  <circle cx="14.56" cy="16.8" r="1.08" fill="#2c4df2"/>
  <path d="M13.28 18.48h2.56v3.36h-.84v-1.92h-.88v1.92h-.84v-3.36z" fill="#2c4df2"/>
  <line x1="17.2" y1="15.6" x2="17.2" y2="22" stroke="#2c4df2" stroke-width="0.9" stroke-linecap="round"/>
  <circle cx="19.84" cy="16.8" r="1.08" fill="#2c4df2"/>
  <path d="M18.56 18.48h2.56l-.28 3.36h-.84l.12-1.68h-.68l.12 1.68h-.84l-.28-3.36z" fill="#2c4df2"/>
</svg>
