<svg xmlns="http://www.w3.org/2000/svg" viewBox="0 0 240 56" fill="none">
  <!-- Isotipo lima + iconos baño azul -->
  <g transform="translate(0, 8)">
    <rect width="40" height="40" rx="8" fill="#daf73a"/>
    <path d="M10 8h12c5.5 0 9 3.2 9 8 0 2.8-1.4 5-3.6 6.2C30.2 23.6 32 26.2 32 30c0 5.2-4 8-10 8H10V8z" fill="#2c4df2"/>
    <path d="M16 13h5.5c2.4 0 3.8 1.3 3.8 3.2S23.9 19.4 21.5 19.4H16V13zm0 9.4h6c2.6 0 4.2 1.4 4.2 3.6 0 2.3-1.6 3.7-4.2 3.7H16v-7.3z" fill="#daf73a"/>
    <circle cx="18.2" cy="21" r="1.35" fill="#2c4df2"/>
    <path d="M16.6 23.1h3.2v4.2h-1.05v-2.4h-1.1v2.4H16.6v-4.2z" fill="#2c4df2"/>
    <line x1="21.5" y1="19.5" x2="21.5" y2="27.5" stroke="#2c4df2" stroke-width="1.1" stroke-linecap="round"/>
    <circle cx="24.8" cy="21" r="1.35" fill="#2c4df2"/>
    <path d="M23.2 23.1h3.2l-.35 4.2h-1.05l.15-2.1h-.85l.15 2.1h-1.05l-.35-4.2z" fill="#2c4df2"/>
  </g>
  <text x="52" y="30" font-family="Montserrat, Arial, sans-serif" font-size="22" font-weight="900" fill="#1b1341" letter-spacing="-0.02em">BOGA</text>
  <rect x="52" y="34" width="54" height="4" rx="2" fill="#daf73a"/>
  <text x="52" y="48" font-family="Montserrat, Arial, sans-serif" font-size="7.5" font-weight="300" fill="#1b1341" letter-spacing="0.28em" opacity="0.8">INGENIERÍA PORTÁTIL</text>
</svg>
