<?xml version="1.0" encoding="UTF-8"?>
<svg id="Layer_1" data-name="Layer 1" xmlns="http://www.w3.org/2000/svg" viewBox="0 0 1450 1080">
  <defs>
    <style>
      .cls-1 {
        fill: #d9f33e;
      }

      .cls-2 {
        fill: #3857e0;
      }
    </style>
  </defs>
  <path class="cls-1" d="M1101,0c241.88,30.46,353.71,301.04,188.38,484.38-9.18,10.18-49.63,30.7-40.35,43.51,244.57,64.02,273.27,402.58,45.37,513.51-22.81,11.1-108.29,38.61-129.39,38.61H1V0h1100ZM233,780c9.67-33.74-7.11-108.83,0-148h144v316c0,23.24-56,23.24-56,0v-276c0-1.6-32-1.6-32,0v276c0,4.12-19.32,20.15-28.01,20.22-46.85.4-20.01-101.5-29.26-130.95-7.01-22.32-30.73-9.47-30.73-1.28v120c0,15.51,35.13,42.36,52.77,43.99,25.41,2.34,35.06-12.98,48.59-14.3,20.64-2.01,59.59,37.22,94.37-1.95,42.33-47.67,7.87-266.28,20.62-279.4,8.87-9.13,68.02,12.07,79.13-60.85,5.64-37.03,5.84-186.44-1.32-221.66-7.02-34.5-55.1-87.56-94.17-85.9,25.09-55.47,46.06-94.65,14.14-154.07-57.59-107.17-225.37-70.13-236.5,56.45-3.41,38.76,22.88,62.27,30.38,97.61-53.59,3.97-90.34,57.16-96.04,108.05-3.98,35.52-5.21,183.49,3.61,212.44,15.41,50.61,79.11,42.84,84.07,47.91,6.35,6.49-10.73,82.61,12.47,87.63,7.12,1.54,18.42-6.87,19.88-11.96ZM569,1000V132c0-13.79-32-13.78-32,0v868c0,1.6,30.85,1.11,32,0ZM889.02,335.9c67.21-76.97,30.39-206.33-76.06-215.95-124.43-11.25-181.15,121.5-107.95,215.92-42.44,7.4-68.96,45.5-78.1,86.05-6.62,29.39-20.32,154.14-16.24,180.02,7.39,46.84,47.33,50.45,53.17,67.45,9.17,26.68-19.57,76.49-3.35,99.16,9.79,13.68,41.49,4.56,44.55,7.44,9.45,8.89-17.63,176.76,16.2,211.73,31.76,32.83,52.12,7.66,76.79,6.75,28.85-1.07,60.41,22.63,82.02-15.41,20.93-36.86,1.41-196.1,8.94-203.05,2.95-2.72,41.21,7.53,52.38-16.07,7.83-16.54-16.75-70.98-12.93-90.44.95-4.83,47.4-26.33,54.87-59.17,8.4-36.93-8.84-168.48-21.8-206.84-10.85-32.13-37.8-62.24-72.49-67.59Z"/>
  <path class="cls-2" d="M889.02,335.9c34.69,5.35,61.64,35.46,72.49,67.59,12.96,38.36,30.2,169.9,21.8,206.84-7.47,32.84-53.92,54.34-54.87,59.17-3.83,19.45,20.76,73.89,12.93,90.44-11.17,23.61-49.43,13.35-52.38,16.07-7.53,6.94,11.99,166.18-8.94,203.05-21.6,38.05-53.16,14.35-82.02,15.41-24.67.91-45.04,26.09-76.79-6.75-33.83-34.97-6.75-202.84-16.2-211.73-3.06-2.88-34.76,6.24-44.55-7.44-16.22-22.67,12.52-72.48,3.35-99.16-5.84-17-45.78-20.61-53.17-67.45-4.08-25.88,9.62-150.64,16.24-180.02,9.13-40.55,35.66-78.65,78.1-86.05-73.2-94.42-16.48-227.17,107.95-215.92,106.44,9.63,143.27,138.99,76.06,215.95ZM774.81,161.89c-103.23,21.21-73.81,203.39,58.62,162.51,79.18-24.44,66.39-188.2-58.62-162.51ZM697,736h200l-47.98-291.86,19.98-27.98c27.58.1,37.57,177.68,52.1,207.82,39.65-18.86,21.08-108.14,14.88-146.95-9.55-59.77-11.43-102.87-82.59-109.41-52.47-4.82-166.21-13.23-184.84,47.91-6.01,19.72-22.63,163.35-19.38,180.2,2.59,13.44,9.8,20.23,19.97,28.18,17.22,3.63,15.08-33.98,17.39-46.42,4.67-25.08,14.62-134.94,22.03-145.96,7.29-10.84,24.91-7.41,36.41-7.56l-47.96,312.01ZM777,776c-5.73,1.07-32-1.6-32,0v184c0,1.6,32,1.6,32,0v-184ZM849,776c-5.73,1.07-32-1.6-32,0v184c0,1.6,32,1.6,32,0v-184Z"/>
  <path class="cls-2" d="M233,780c-1.46,5.08-12.76,13.5-19.88,11.96-23.2-5.02-6.12-81.14-12.47-87.63-4.96-5.07-68.66,2.7-84.07-47.91-8.82-28.95-7.59-176.92-3.61-212.44,5.7-50.89,42.46-104.09,96.04-108.05-7.5-35.34-33.79-58.85-30.38-97.61,11.13-126.58,178.91-163.62,236.5-56.45,31.93,59.42,10.95,98.59-14.14,154.07,39.07-1.66,87.15,51.4,94.17,85.9,7.16,35.22,6.97,184.63,1.32,221.66-11.12,72.91-70.26,51.72-79.13,60.85-12.76,13.12,21.71,231.73-20.62,279.4-34.78,39.17-73.73-.06-94.37,1.95-13.53,1.32-23.18,16.64-48.59,14.3-17.64-1.63-52.77-28.48-52.77-43.99v-120c0-8.19,23.71-21.05,30.73,1.28,9.25,29.44-17.59,131.35,29.26,130.95,8.69-.07,28.01-16.1,28.01-20.22v-276c0-1.6,32-1.6,32,0v276c0,23.24,56,23.24,56,0v-316h-144c-7.11,39.17,9.67,114.26,0,148ZM366.27,309.27c91.26-85.79-55.82-214.2-129.64-117.64-65.76,86.01,54.11,188.64,129.64,117.64ZM409,664c25.68,2.04,50.19,1.51,55.77-28.23,4.85-25.82,3-199.28-5.66-217.89-27.87-59.92-166.76-56.35-222.62-50.39-21.55,2.3-69.35,26.58-81,42.95-13.11,18.41-16.3,206.67-8.88,231.95,6.96,23.69,34.14,23.26,54.39,21.61v-196c0-13.79,32-13.78,32,0v132h144v-132c0-13.78,32-13.79,32,0v196Z"/>
  <path class="cls-2" d="M569,1000c-1.15,1.11-32,1.6-32,0V132c0-13.78,32-13.79,32,0v868Z"/>
  <path class="cls-1" d="M697,736l47.96-312.01c-11.51.15-29.12-3.29-36.41,7.56-7.41,11.02-17.37,120.87-22.03,145.96-2.31,12.44-.17,50.05-17.39,46.42-10.17-7.95-17.38-14.74-19.97-28.18-3.25-16.85,13.37-160.48,19.38-180.2,18.64-61.14,132.37-52.74,184.84-47.91,71.16,6.54,73.04,49.64,82.59,109.41,6.2,38.81,24.78,128.09-14.88,146.95-14.53-30.14-24.52-207.72-52.1-207.82l-19.98,27.98,47.98,291.86h-200Z"/>
  <path class="cls-1" d="M774.81,161.89c125.01-25.68,137.8,138.07,58.62,162.51-132.43,40.88-161.85-141.3-58.62-162.51Z"/>
  <path class="cls-1" d="M777,776v184c0,1.6-32,1.6-32,0v-184c0-1.6,26.27,1.07,32,0Z"/>
  <path class="cls-1" d="M849,776v184c0,1.6-32,1.6-32,0v-184c0-1.6,26.27,1.07,32,0Z"/>
  <path class="cls-1" d="M409,664v-196c0-13.79-32-13.78-32,0v132h-144v-132c0-13.78-32-13.79-32,0v196c-20.25,1.65-47.43,2.08-54.39-21.61-7.43-25.27-4.23-213.54,8.88-231.95,11.66-16.37,59.45-40.65,81-42.95,55.86-5.95,194.76-9.52,222.62,50.39,8.66,18.61,10.51,192.07,5.66,217.89-5.59,29.73-30.09,30.27-55.77,28.23Z"/>
  <path class="cls-1" d="M366.27,309.27c-75.53,71-195.4-31.63-129.64-117.64,73.82-96.56,220.9,31.85,129.64,117.64Z"/>
</svg>